<?xml version="1.0" standalone="no"?>
<!DOCTYPE svg PUBLIC "-//W3C//DTD SVG 20010904//EN"
 "http://www.w3.org/TR/2001/REC-SVG-20010904/DTD/svg10.dtd">
<svg version="1.0" xmlns="http://www.w3.org/2000/svg"
 width="1280.000000pt" height="1280.000000pt" viewBox="0 0 1280.000000 1280.000000"
 preserveAspectRatio="xMidYMid meet">

<g transform="translate(0.000000,1280.000000) scale(0.100000,-0.100000)"
fill="#000000" stroke="none">
<path d="M6005 12163 c-261 -15 -576 -46 -594 -58 -4 -2 -61 -13 -127 -24
-293 -49 -639 -140 -899 -236 -267 -98 -294 -109 -473 -191 -40 -19 -78 -34
-85 -34 -7 0 -17 -4 -23 -9 -5 -5 -56 -33 -114 -62 -133 -67 -380 -206 -401
-225 -8 -8 -19 -14 -24 -14 -9 0 -274 -174 -335 -220 -19 -15 -66 -50 -105
-78 -117 -87 -124 -93 -280 -222 -136 -113 -473 -439 -585 -565 -225 -254
-372 -446 -583 -765 -206 -310 -455 -812 -582 -1170 -90 -256 -125 -376 -215
-740 -10 -41 -18 -84 -70 -385 -10 -56 -23 -174 -42 -370 -8 -76 -13 -272 -13
-475 0 -332 4 -423 25 -630 5 -52 12 -122 15 -155 3 -33 10 -82 15 -110 5 -27
16 -90 25 -140 32 -181 53 -285 70 -345 7 -25 17 -65 23 -90 27 -111 43 -169
61 -225 11 -33 31 -98 46 -145 24 -79 66 -199 85 -245 4 -11 32 -78 60 -150
231 -575 580 -1143 998 -1625 186 -214 467 -490 672 -660 30 -25 70 -59 90
-75 68 -59 272 -207 433 -314 340 -227 728 -430 1107 -578 104 -41 386 -136
485 -164 22 -6 63 -18 90 -26 28 -7 64 -18 80 -23 30 -9 282 -65 360 -80 79
-16 292 -48 390 -60 55 -6 129 -16 165 -21 140 -20 561 -30 820 -19 140 5 284
14 320 19 36 5 108 15 160 21 171 21 364 54 545 95 183 41 183 41 285 70 52
15 106 29 120 32 14 2 34 8 45 13 11 5 81 29 155 54 152 50 292 102 395 148
39 17 86 37 105 46 55 23 368 178 435 215 74 40 251 144 285 168 14 9 52 34
85 55 266 169 669 488 855 676 67 68 120 156 149 249 14 45 14 202 0 248 -46
150 -155 283 -279 337 -73 33 -128 44 -215 44 -168 0 -245 -37 -441 -215 -61
-55 -122 -109 -135 -120 -416 -339 -732 -537 -1169 -732 -160 -71 -213 -91
-445 -168 -179 -59 -221 -72 -312 -94 -21 -5 -63 -16 -93 -24 -30 -8 -84 -20
-120 -26 -36 -7 -87 -16 -115 -21 -203 -38 -221 -40 -550 -70 -142 -13 -496
-13 -644 0 -276 24 -349 33 -404 46 -32 8 -69 14 -83 14 -13 0 -43 4 -66 10
-24 5 -81 17 -128 26 -47 9 -119 25 -160 36 -41 11 -93 24 -115 30 -122 31
-517 169 -609 212 -28 13 -79 36 -114 50 -99 42 -334 165 -477 251 -396 237
-707 489 -1055 852 -235 246 -475 564 -639 848 -28 50 -56 97 -61 105 -30 48
-57 99 -69 130 -8 19 -18 40 -23 46 -29 39 -202 430 -222 504 -4 14 -11 34
-15 45 -27 66 -42 108 -62 175 -12 41 -31 102 -42 135 -11 33 -23 76 -27 95
-4 19 -16 69 -25 110 -48 210 -63 287 -80 415 -8 66 -20 152 -25 190 -34 254
-35 770 0 1035 5 41 17 131 26 200 9 69 20 141 24 160 5 19 13 60 20 90 6 30
15 73 20 95 5 22 19 78 30 125 10 47 28 112 38 145 11 33 29 94 41 135 22 76
46 141 62 172 5 10 9 23 9 29 0 15 71 191 81 204 5 5 9 15 9 23 0 19 176 376
238 482 295 510 635 924 1059 1292 222 192 540 418 784 555 115 65 452 233
466 233 5 0 31 11 59 23 27 13 83 36 124 51 41 15 84 31 95 36 30 13 161 56
245 80 41 13 93 28 115 36 22 7 65 18 95 24 30 7 71 16 90 20 183 44 264 58
535 94 358 48 802 46 1165 -4 210 -29 281 -41 390 -66 36 -8 85 -20 110 -25
109 -25 140 -33 220 -56 540 -161 996 -376 1417 -670 69 -49 135 -95 147 -103
27 -19 193 -151 226 -179 14 -12 36 -32 50 -43 49 -41 236 -213 277 -254 89
-91 207 -137 349 -137 150 -1 254 41 357 141 109 107 151 209 151 367 -1 106
-12 152 -60 248 -52 101 -392 414 -709 651 -128 96 -194 142 -365 256 -14 9
-72 45 -130 79 -58 35 -130 78 -160 96 -233 140 -770 375 -1055 462 -27 8 -61
20 -75 25 -14 6 -38 14 -55 18 -16 5 -93 25 -170 45 -185 50 -365 87 -610 129
-354 60 -823 83 -1220 59z"/>
<path d="M5975 10722 c-83 -12 -191 -73 -238 -136 -15 -19 -40 -59 -55 -88
l-27 -53 0 -4140 0 -4140 29 -60 c35 -71 119 -157 181 -185 66 -30 142 -43
210 -37 144 14 250 88 320 222 l30 58 0 4146 0 4146 -40 69 c-26 45 -58 84
-94 112 -49 38 -67 49 -126 76 -20 9 -152 16 -190 10z"/>
<path d="M7190 10715 c-234 -73 -386 -298 -366 -542 7 -90 27 -150 78 -230 83
-131 188 -197 403 -253 39 -10 90 -25 115 -34 25 -9 79 -28 120 -42 79 -27 89
-31 210 -85 115 -51 325 -160 328 -170 2 -5 9 -9 16 -9 24 0 259 -158 386
-259 141 -112 152 -122 315 -286 206 -205 394 -447 516 -660 66 -116 79 -141
122 -230 74 -152 118 -253 142 -325 10 -30 24 -68 30 -85 16 -37 71 -221 78
-255 2 -14 13 -59 24 -100 20 -73 27 -112 57 -310 33 -214 39 -296 39 -540 0
-245 -4 -307 -39 -535 -35 -227 -49 -301 -66 -344 -5 -14 -13 -43 -18 -65 -56
-273 -230 -675 -430 -992 -318 -504 -815 -952 -1350 -1215 -167 -82 -372 -165
-505 -204 -258 -76 -282 -86 -354 -135 -261 -177 -295 -559 -69 -784 63 -62
146 -111 233 -136 55 -16 245 -7 315 15 30 9 70 21 88 26 17 5 47 13 65 18
112 32 329 115 507 194 419 186 843 462 1151 748 56 52 106 96 111 97 4 2 73
72 151 156 280 300 491 587 674 921 68 123 161 313 192 391 11 28 29 71 40 95
10 24 29 73 41 109 12 36 28 79 35 95 7 17 29 84 49 150 20 66 42 140 50 165
25 80 77 317 95 430 52 328 56 393 56 810 0 330 -3 417 -19 530 -10 74 -22
164 -26 200 -10 83 -21 139 -60 305 -5 22 -16 72 -25 110 -9 39 -20 81 -24 95
-5 14 -19 59 -31 100 -234 781 -679 1498 -1255 2020 -440 398 -881 675 -1395
874 -52 21 -111 43 -130 51 -19 8 -51 18 -70 24 -19 6 -82 26 -140 45 -58 19
-137 41 -177 50 -87 19 -222 20 -283 1z"/>
<path d="M7180 9016 c-14 -7 -43 -22 -65 -32 -79 -38 -159 -128 -189 -215 -14
-39 -16 -322 -16 -2464 0 -2673 -5 -2454 64 -2557 43 -63 135 -133 203 -153
61 -18 180 -20 237 -3 39 11 118 58 161 96 29 25 81 110 99 162 14 40 16 301
16 2455 0 2307 -1 2412 -18 2460 -40 109 -116 186 -237 239 -47 22 -73 26
-144 26 -52 0 -96 -6 -111 -14z"/>
<path d="M8440 7920 c-25 -9 -58 -22 -73 -29 -77 -31 -172 -157 -196 -263 -15
-66 -15 -2580 0 -2646 43 -186 196 -310 383 -312 165 -1 290 83 367 245 l24
50 0 1335 c0 1262 -1 1337 -18 1379 -22 54 -72 128 -106 159 -100 90 -269 127
-381 82z"/>
</g>
</svg>
